#!OML:ASF I:\Actors\actors\Patient Classification 1\Patient 1\Session 1\Subject1.ASF
:FULLY-SPECIFIED
:DEGREES
501
root 0.129645 17.6817 8.74983 12.5461 14.4342 -10.4496
lowerback 5.78441 1.4295 6.15209
upperback -7.4871 2.73867 0.847677
thorax -11.0779 0.871787 -2.9436
lowerneck -3.19283 -6.11837 -5.99046
upperneck 24.9157 -10.5935 11.9145
head 9.27492 -4.40225 4.1573
rclavicle -1.48343e-014 -3.57812e-014
rhumerus 4.03978 -9.40779 3.06042
rradius 38.4295
rwrist 4.24594
rhand 67.2206 -50.8173
rfingers 7.12502
rthumb 74.5207 8.00627
lclavicle -1.48343e-014 -3.57812e-014
lhumerus 7.7351 -0.895807 -4.26929
lradius 46.9938
lwrist 30.9039
lhand 46.3062 0.47061
lfingers 7.12502
lthumb 67.3679 3.13493
rfemur -3.86477 27.5881 26.1329
rtibia -0.135606
rfoot -21.7582 -38.1254
rtoes 16.0502
lfemur -7.39032 -49.586 1.21464
ltibia -5.20723
lfoot -8.70837 50.0864
ltoes -2.78034
502
root 0.127043 17.681 8.74957 12.5489 14.4872 -10.3862
lowerback 6.06825 1.41551 6.1241
upperback -7.61797 2.7426 0.803975
thorax -11.3991 0.859482 -2.98912
lowerneck -3.17744 -6.13042 -6.03439
upperneck 24.925 -10.6315 12.0121
head 9.28753 -4.41538 4.19613
rclavicle 1.19271e-014 1.59028e-014
rhumerus 4.15398 -9.84696 3.11832
rradius 38.4365
rwrist 4.28191
rhand 66.5091 -50.9683
rfingers 7.12502
rthumb 74.6755 5.33413
lclavicle 1.19271e-014 1.59028e-014
lhumerus 7.99849 -0.321515 -4.16638
lradius 47.0297
lwrist 30.763
lhand 46.3815 0.685759
lfingers 7.12502
lthumb 67.4236 3.22807
rfemur -3.83183 27.635 26.0894
rtibia -0.160583
rfoot -21.8127 -38.2316
rtoes 16.1845
lfemur -7.42304 -49.5674 1.17443
ltibia -5.20391
lfoot -8.6283 50.0135
ltoes -2.79243
503
root 0.124734 17.6809 8.74917 12.5839 14.563 -10.3222
lowerback 6.30335 1.39557 6.09361
upperback -7.7348 2.73437 0.772114
thorax -11.6776 0.843985 -3.01663
lowerneck -3.25255 -6.14537 -6.16977
upperneck 25.0063 -10.6788 12.1466
head 9.35115 -4.432 4.26155
rclavicle 1.2424e-016 1.51076e-014
rhumerus 4.28382 -10.5155 3.09111
rradius 38.4224
rwrist 4.42035
rhand 65.9554 -51.3699
rfingers 7.12502
rthumb 74.7745 2.93768
lclavicle 1.2424e-016 1.51076e-014
lhumerus 8.26065 0.390168 -3.9841
lradius 47.0048
lwrist 30.5737
lhand 46.4721 0.831581
lfingers 7.12502
lthumb 67.4903 3.22645
rfemur -3.83399 27.6967 26.0267
rtibia -0.19452
rfoot -21.8551 -38.3804
rtoes 16.2291
lfemur -7.53018 -49.5341 1.19143
ltibia -5.19882
lfoot -8.50297 49.9209
ltoes -2.95689
504
root 0.122586 17.6814 8.75029 12.6322 14.6245 -10.3102
lowerback 6.50044 1.37023 6.0756
upperback -7.84884 2.72084 0.777042
thorax -11.9326 0.827887 -3.00879
lowerneck -3.38161 -6.14304 -6.27291
upperneck 25.1176 -10.6917 12.2157
head 9.42656 -4.43253 4.30103
rclavicle -4.85283e-014 -2.70347e-014
rhumerus 4.50657 -11.487 2.88464
rradius 38.4072
rwrist 5.03857
rhand 65.7855 -51.9419
rfingers 7.12502
rthumb 74.8011 1.74843
lclavicle -4.85283e-014 -2.70347e-014
lhumerus 8.50845 1.28355 -3.70343
lradius 46.8873
lwrist 29.9836
lhand 46.5994 0.73745
lfingers 7.12502
lthumb 67.5839 2.92335
rfemur -3.85266 27.8138 26.0103
rtibia -0.228972
rfoot -21.9578 -38.5267
rtoes 16.3645
lfemur -7.63522 -49.7152 1.29416
ltibia -5.20433
lfoot -8.53955 50.0549
ltoes -2.95121
505
root 0.122158 17.682 8.75141 12.6817 14.7065 -10.2979
lowerback 7.09946 1.44467 6.51183
upperback -8.25455 2.91404 0.441911
thorax -12.7269 0.822458 -3.68277
lowerneck -3.27683 -6.26018 -6.19572
upperneck 25.4165 -10.9542 12.4165
head 9.5519 -4.52239 4.34157
rclavicle 2.80038e-014 5.48646e-014
rhumerus 3.99648 -12.0083 2.72071
rradius 38.5004
rwrist 5.93688
rhand 65.6626 -51.4729
rfingers 7.12502
rthumb 74.8192 1.76954
lclavicle 2.80038e-014 5.48646e-014
lhumerus 9.33937 1.66264 -3.65653
lradius 46.8671
lwrist 29.4013
lhand 46.8188 0.870523
lfingers 7.12502
lthumb 67.7443 2.69236
rfemur -3.84774 27.9183 25.9919
rtibia -0.299861
rfoot -22.141 -38.6397
rtoes 16.7608
lfemur -7.75404 -50.0913 1.41186
ltibia -5.18837
lfoot -8.70368 50.3537
ltoes -2.71824
506
root 0.12283 17.683 8.75151 12.7337 14.8272 -10.3153
lowerback 7.3299 1.40583 6.6259
upperback -8.40908 2.90179 0.408519
thorax -13.0495 0.787007 -3.79475
lowerneck -3.46926 -6.25607 -6.1086
upperneck 25.6613 -10.9682 12.3508
head 9.66993 -4.51057 4.30124
rclavicle -4.22169e-014 7.95139e-016
rhumerus 4.07532 -12.9083 2.61402
rradius 38.5282
rwrist 6.91086
rhand 65.4988 -49.9769
rfingers 7.12502
rthumb 74.8419 2.66708
lclavicle -4.22169e-014 7.95139e-016
lhumerus 9.58036 2.41069 -3.47127
lradius 46.847
lwrist 28.7677
lhand 47.0505 1.21156
lfingers 7.12502
lthumb 67.9128 2.64285
rfemur -3.8558 28.0086 25.9994
rtibia -0.384333
rfoot -22.3054 -38.7671
rtoes 16.9599
lfemur -7.94016 -50.3311 1.60131
ltibia -5.16838
lfoot -8.74309 50.5119
ltoes -2.65222
507
root 0.12245 17.6841 8.75053 12.7909 14.9333 -10.3962
lowerback 7.17069 1.26171 6.36093
upperback -8.28969 2.68611 0.726939
thorax -12.8566 0.739361 -3.2504
lowerneck -3.94262 -6.11148 -6.11607
upperneck 25.7626 -10.7081 12.124
head 9.75433 -4.3905 4.23743
rclavicle 6.48535e-015 -3.4191e-014
rhumerus 4.88063 -14.1172 2.49016
rradius 38.5289
rwrist 7.75433
rhand 65.1029 -48.9207
rfingers 7.12502
rthumb 74.8895 2.27024
lclavicle 6.48535e-015 -3.4191e-014
lhumerus 9.21426 3.79751 -3.02449
lradius 46.7514
lwrist 27.9632
lhand 47.368 1.44709
lfingers 7.12502
lthumb 68.1417 2.3334
rfemur -3.92257 28.124 26.0607
rtibia -0.42323
rfoot -22.4273 -38.8999
rtoes 17.0163
lfemur -8.15472 -50.436 1.8911
ltibia -5.17449
lfoot -8.68544 50.5771
ltoes -2.62859
508
root 0.121589 17.6849 8.74848 12.8801 14.9895 -10.4123
lowerback 7.69284 1.27699 6.63988
upperback -8.64845 2.79023 0.5408
thorax -13.5816 0.71371 -3.65727
lowerneck -3.97391 -6.14241 -6.14636
upperneck 26.1168 -10.8473 12.3467
head 9.92072 -4.4231 4.31579
rclavicle -5.19201e-014 1.19271e-014
rhumerus 4.68258 -14.3994 2.46543
rradius 38.6767
rwrist 8.46465
rhand 64.6957 -48.8319
rfingers 7.12502
rthumb 74.9281 0.855971
lclavicle -5.19201e-014 1.19271e-014
lhumerus 9.75001 4.55091 -2.77307
lradius 46.7598
lwrist 27.3221
lhand 47.6349 1.57721
lfingers 7.12502
lthumb 68.3326 1.99623
rfemur -4.03284 28.2064 26.0241
rtibia -0.444524
rfoot -22.5163 -38.9759
rtoes 17.3497
lfemur -8.37896 -50.5564 2.10939
ltibia -5.15446
lfoot -8.76529 50.6691
ltoes -2.42732
509
root 0.121302 17.6861 8.74702 12.9744 15.0101 -10.3821
lowerback 7.68807 1.17202 6.33868
upperback -8.6121 2.62637 0.746696
thorax -13.5709 0.680447 -3.23055
lowerneck -4.17126 -6.00024 -5.90404
upperneck 25.9296 -10.559 11.9886
head 9.8225 -4.29974 4.16616
rclavicle -9.85227e-015 7.95139e-016
rhumerus 5.45804 -15.5316 2.26779
rradius 38.6114
rwrist 9.3819
rhand 64.5335 -49.1591
rfingers 7.12502
rthumb 74.9405 -0.0723877
lclavicle -9.85227e-015 7.95139e-016
lhumerus 9.57855 6.07037 -2.33803
lradius 46.6634
lwrist 26.5898
lhand 47.9704 1.69636
lfingers 7.12502
lthumb 68.5703 1.51577
rfemur -4.12809 28.2958 25.9379
rtibia -0.480045
rfoot -22.5494 -39.0822
rtoes 17.5796
lfemur -8.55798 -50.723 2.24084
ltibia -5.14031
lfoot -8.90519 50.8345
ltoes -2.31485
510
root 0.121491 17.6876 8.74666 13.0502 15.0408 -10.3535
lowerback 7.97867 1.1286 6.31279
upperback -8.77103 2.59743 0.745803
thorax -13.9484 0.6515 -3.22496
lowerneck -4.27852 -5.95941 -5.95237
upperneck 25.967 -10.5043 12.0123
head 9.85467 -4.27168 4.187
rclavicle -5.39452e-014 -8.50798e-014
rhumerus 5.72507 -16.2589 2.17301
rradius 38.6221
rwrist 10.0329
rhand 64.2909 -49.4704
rfingers 7.12502
rthumb 74.9559 -1.28393
lclavicle -5.39452e-014 -8.50798e-014
lhumerus 9.80453 7.25907 -1.95071
lradius 46.5413
lwrist 25.8538
lhand 48.1459 1.92225
lfingers 7.12502
lthumb 68.6937 1.42258
rfemur -4.17231 28.4656 25.8787
rtibia -0.522589
rfoot -22.7135 -39.2352
rtoes 17.8608
lfemur -8.68593 -51.031 2.34686
ltibia -5.14131
lfoot -9.04315 51.1343
ltoes -2.18158
511
root 0.121381 17.689 8.74685 13.1465 15.0806 -10.2788
lowerback 8.18974 1.08016 6.21543
upperback -8.9024 2.54361 0.75493
thorax -14.2488 0.622674 -3.15978
lowerneck -4.32661 -5.90973 -5.97755
upperneck 25.9215 -10.4306 12.0332
head 9.84155 -4.23783 4.20474
rclavicle -4.1546e-014 1.19271e-014
rhumerus 6.02793 -16.9665 2.10032
rradius 38.5471
rwrist 10.4835
rhand 63.8094 -49.5871
rfingers 7.12502
rthumb 74.9752 -3.19175
lclavicle -4.1546e-014 1.19271e-014
lhumerus 9.93701 8.27471 -1.65431
lradius 46.495
lwrist 25.2067
lhand 47.8396 2.1277
lfingers 7.12502
lthumb 68.478 2.18239
rfemur -4.21234 28.6367 25.7606
rtibia -0.587672
rfoot -22.9556 -39.3466
rtoes 18.321
lfemur -8.86044 -51.3457 2.42017
ltibia -5.08313
lfoot -9.39974 51.4113
ltoes -1.67799
512
root 0.121454 17.6905 8.74743 13.2418 15.0951 -10.2015
lowerback 8.4855 1.09319 6.26473
upperback -9.11105 2.59008 0.628265
thorax -14.6785 0.609788 -3.35192
lowerneck -4.18939 -5.92543 -5.90563
upperneck 25.8147 -10.4739 12.1138
head 9.78206 -4.25205 4.21797
rclavicle 4.21423e-014 -9.54166e-015
rhumerus 5.97427 -17.3866 2.15029
rradius 38.4384
rwrist 10.7722
rhand 63.1993 -49.5093
rfingers 7.12502
rthumb 74.9779 -5.38752
lclavicle 4.21423e-014 -9.54166e-015
lhumerus 10.3261 8.97548 -1.4749
lradius 46.4855
lwrist 24.7805
lhand 47.5774 2.26042
lfingers 7.12502
lthumb 68.2916 2.78074
rfemur -4.27409 28.7183 25.626
rtibia -0.64311
rfoot -23.0767 -39.3922
rtoes 18.4998
lfemur -9.03053 -51.4474 2.46374
ltibia -5.02845
lfoot -9.76044 51.5222
ltoes -1.09793
513
root 0.122694 17.6919 8.74745 13.3033 15.0998 -10.1466
lowerback 8.95621 1.14119 6.50038
upperback -9.39618 2.71886 0.38935
thorax -15.2992 0.595241 -3.80212
lowerneck -4.07089 -6.01585 -5.83333
upperneck 25.875 -10.6586 12.2554
head 9.80679 -4.31948 4.24093
rclavicle -4.27604e-014 1.11319e-014
rhumerus 5.56224 -17.562 2.28653
rradius 38.4694
rwrist 11.0274
rhand 62.6381 -49.3483
rfingers 7.12502
rthumb 74.9591 -7.31512
lclavicle -4.27604e-014 1.11319e-014
lhumerus 10.9331 9.50727 -1.3006
lradius 46.4968
lwrist 24.2704
lhand 47.5949 2.33946
lfingers 7.12502
lthumb 68.3041 2.82904
rfemur -4.33061 28.6892 25.5299
rtibia -0.662263
rfoot -23.0585 -39.3875
rtoes 18.362
lfemur -9.12917 -51.5596 2.48547
ltibia -5.01743
lfoot -9.90982 51.6413
ltoes -0.742687
514
root 0.124076 17.6928 8.74707 13.3462 15.1133 -10.1195
lowerback 9.33324 1.14033 6.63638
upperback -9.59031 2.76798 0.267292
thorax -15.7693 0.568199 -4.04681
lowerneck -4.13044 -6.07601 -5.863
upperneck 26.0156 -10.7889 12.3739
head 9.89344 -4.36427 4.27596
rclavicle 2.32935e-014 -4.37326e-014
rhumerus 5.39928 -17.8989 2.34209
rradius 38.5317
rwrist 11.4609
rhand 62.2827 -49.1005
rfingers 7.12502
rthumb 74.9366 -8.38649
lclavicle 2.32935e-014 -4.37326e-014
lhumerus 11.2884 10.1562 -1.14677
lradius 46.5645
lwrist 23.5526
lhand 47.6332 2.49057
lfingers 7.12502
lthumb 68.3314 2.91255
rfemur -4.36065 28.6838 25.4761
rtibia -0.694611
rfoot -23.051 -39.4117
rtoes 18.3751
lfemur -9.20764 -51.7975 2.54026
ltibia -5.0056
lfoot -9.99812 51.8625
ltoes -0.600521
